<?xml version="1.0" encoding="UTF-8"?>
<svg xmlns="http://www.w3.org/2000/svg" width="1280" height="980" viewBox="0 0 1280 980">
  <defs><style type="text/css"><![CDATA[
.bg{fill:#eef3f7}.shell{fill:#f8fbfd;stroke:#d5e0eb}
.ink{fill:#142033}.muted{fill:#6b7a8d}.faint{fill:#94a3b4}
.surface{fill:#ffffff;stroke:rgba(26,45,74,0.14)}
.soft{fill:#f1f5f9;stroke:rgba(26,45,74,0.14)}
.small{font:11px 'Segoe UI','Microsoft YaHei',sans-serif}
.body{font:13px 'Segoe UI','Microsoft YaHei',sans-serif}
.title{font:700 15px 'Segoe UI','Microsoft YaHei',sans-serif}
.h1{font:700 18px 'Segoe UI','Microsoft YaHei',sans-serif}
.h2{font:700 16px 'Segoe UI','Microsoft YaHei',sans-serif}
.label{font:700 12px 'Segoe UI','Microsoft YaHei',sans-serif}
.cap{font:700 10px 'Segoe UI','Microsoft YaHei',sans-serif}
.metaL{font:600 11px 'Segoe UI','Microsoft YaHei',sans-serif}
.metaV{font:700 12px 'Segoe UI','Microsoft YaHei',sans-serif}
]]></style></defs>

  <rect class="bg" width="1280" height="980"/>
  <rect x="40" y="20" width="1200" height="940" rx="16" class="shell"/>

  <rect x="40" y="20" width="1200" height="72" rx="14" class="surface"/>
  <text x="60" y="48" class="h1 ink">VS Code</text>
  <text x="60" y="68" class="small muted">选下面一种效果即可 · 无需逐键配置</text>
  <rect x="880" y="34" width="108" height="22" rx="11" fill="rgba(245,158,11,0.1)" stroke="rgba(245,158,11,0.28)"/>
  <text x="934" y="49" text-anchor="middle" class="cap" fill="#d97706">我的应用</text>

  <g transform="translate(64 118)">
      <rect x="0" y="0" width="78" height="30" rx="8" fill="#f1f5f9" stroke="rgba(26,45,74,0.14)" stroke-width="1"/>
      <text x="39" y="20" text-anchor="middle" class="cap" fill="#6b7a8d">Codex</text>
      <rect x="86" y="0" width="78" height="30" rx="8" fill="#f1f5f9" stroke="rgba(26,45,74,0.14)" stroke-width="1"/>
      <text x="125" y="20" text-anchor="middle" class="cap" fill="#6b7a8d">Claude</text>
      <rect x="172" y="0" width="78" height="30" rx="8" fill="#f1f5f9" stroke="rgba(26,45,74,0.14)" stroke-width="1"/>
      <text x="211" y="20" text-anchor="middle" class="cap" fill="#6b7a8d">Cursor</text>
      <rect x="258" y="0" width="96" height="30" rx="8" fill="#fff" stroke="#3eb8dc" stroke-width="2"/>
      <text x="306" y="20" text-anchor="middle" class="cap" fill="#2a9cc4">我的应用</text><rect x="266" y="28" width="80" height="3" rx="1.5" fill="#3eb8dc"/></g>
  <g transform="translate(0 158)">
    <g transform="translate(64 0)">
      <circle cx="154" cy="40" r="28" fill="#fff" stroke="rgba(26,45,74,0.14)" stroke-width="1"/>
      
      <text x="154" y="88" text-anchor="middle" class="h2 ink">Soft Pad</text>
      <text x="154" y="106" text-anchor="middle" class="small muted">改键位</text>
    </g>
    <g transform="translate(444 0)">
      <circle cx="154" cy="40" r="28" fill="#fff" stroke="#34d399" stroke-width="2.5"/>
      <circle cx="154" cy="40" r="34" fill="none" stroke="#34d399" stroke-opacity="0.22" stroke-width="5"/>
      <text x="154" y="88" text-anchor="middle" class="h2 ink">状态灯</text>
      <text x="154" y="106" text-anchor="middle" class="small muted">看 AI 忙不忙</text>
    </g>
    <g transform="translate(824 0)">
      <circle cx="154" cy="40" r="28" fill="#fff" stroke="rgba(26,45,74,0.14)" stroke-width="1"/>
      
      <text x="154" y="88" text-anchor="middle" class="h2 ink">时间胶囊</text>
      <text x="154" y="106" text-anchor="middle" class="small muted">恢复点</text>
    </g></g>

  <g transform="translate(64 248)"><rect width="1152" height="320" rx="18" fill="#ecf8f3" stroke="rgba(52,211,153,0.35)"/><text x="20" y="26" class="cap" fill="#34d399">HERO · 预览即说明</text><rect x="440" y="40" width="272" height="164" rx="20" fill="#d9eef6" stroke="#7c3aed" stroke-width="4"/><rect x="452" y="52" width="248" height="132" rx="14" fill="#f7fbfd" stroke="#b7dcea"/><rect x="456" y="56" width="72" height="52" rx="10" fill="#fff" stroke="#d5e1ec"/><rect x="540" y="56" width="72" height="52" rx="10" fill="#fff" stroke="#d5e1ec"/><rect x="624" y="56" width="72" height="52" rx="10" fill="#fff" stroke="#d5e1ec"/><rect x="456" y="120" width="72" height="52" rx="10" fill="#fff" stroke="#d5e1ec"/><rect x="540" y="120" width="72" height="52" rx="10" fill="#fff" stroke="#d5e1ec"/><rect x="624" y="120" width="72" height="52" rx="10" fill="#fff" stroke="#d5e1ec"/><rect x="452" y="180" width="248" height="24" rx="8" fill="#1e3a48"/><circle cx="472" cy="192" r="5" fill="#d97706"/><circle cx="488" cy="192" r="5" fill="#3b82f6"/><circle cx="504" cy="192" r="5" fill="#f59e0b"/><text x="676" y="196" text-anchor="end" class="cap" fill="#9ec9d8">顶栏圆点</text><path d="M 428 96 L 448 96" stroke="#7c3aed" stroke-width="1.5"/><text x="424" y="100" text-anchor="end" class="small" fill="#7c3aed">盘边颜色</text><circle cx="20" cy="292" r="5" fill="#94a3b4"/><text x="30" y="296" class="small muted">空闲</text><circle cx="76" cy="292" r="5" fill="#3b82f6"/><text x="86" y="296" class="small muted">忙</text><circle cx="132" cy="292" r="5" fill="#f59e0b"/><text x="142" y="296" class="small muted">等你</text><circle cx="188" cy="292" r="5" fill="#22c55e"/><text x="198" y="296" class="small muted">完成</text><circle cx="244" cy="292" r="5" fill="#dc2626"/><text x="254" y="296" class="small muted">失败</text></g>

  <g transform="translate(64 584)">
    <text x="0" y="0" class="label ink">选一种效果</text>
    
      <g transform="translate(0 16)">
        <rect width="360" height="120" rx="14" fill="#faf5ff" stroke="#7c3aed" stroke-width="2"/>
        <rect x="12" y="12" width="52" height="20" rx="10" fill="rgba(46,125,79,0.1)" stroke="rgba(46,125,79,0.28)"/><text x="38" y="26" text-anchor="middle" class="cap" fill="#2e7d4f">推荐</text>
        <circle cx="32" cy="58" r="14" fill="#7c3aed" opacity="0.25"/>
        <circle cx="32" cy="58" r="8" fill="#7c3aed"/>
        <text x="56" y="52" class="title ink">盘边变色</text>
        <text x="56" y="72" class="small muted">前台时盘边一种颜</text>
        
      </g>
      <g transform="translate(384 16)">
        <rect width="360" height="120" rx="14" fill="#fff" stroke="rgba(26,45,74,0.14)" stroke-width="1"/>
        
        <circle cx="32" cy="58" r="14" fill="#3eb8dc" opacity="0.25"/>
        <circle cx="32" cy="58" r="8" fill="#3eb8dc"/>
        <text x="56" y="52" class="title ink">一盏键灯</text>
        <text x="56" y="72" class="small muted">像 Codex，一颗键表示忙闲</text>
        
      </g>
      <g transform="translate(768 16)">
        <rect width="360" height="120" rx="14" fill="#fff" stroke="rgba(26,45,74,0.14)" stroke-width="1"/>
        
        <circle cx="32" cy="58" r="14" fill="#d97706" opacity="0.25"/>
        <circle cx="32" cy="58" r="8" fill="#d97706"/>
        <text x="56" y="52" class="title ink">多键提示</text>
        <text x="56" y="72" class="small muted">看起来像 Claude（模拟）</text>
        <text x="56" y="94" class="small" fill="#d97706">模拟效果 · 非官方 Hook</text>
      </g>
  </g>

  <g transform="translate(64 738)">
    
    <rect x="0" y="0" width="40" height="22" rx="11" fill="#2e7d4f" stroke="#2e7d4f"/>
    <circle cx="28" cy="11" r="8" fill="#fff"/>
    <text x="52" y="15" class="label ink">显示 VS Code 状态灯</text>
    <rect x="820" y="-2" width="280" height="28" rx="8" class="soft"/>
    <text x="836" y="16" class="small faint">▸ 高级设置（逐键 / API / 对照表）</text>
  </g>

  <text x="64" y="940" class="title ink">图 B · 我的应用 · 三模板卡片 + 高级折叠</text>

</svg>