<?xml version="1.0" encoding="UTF-8"?>
<svg xmlns="http://www.w3.org/2000/svg" width="1280" height="980" viewBox="0 0 1280 980">
  <defs><style type="text/css"><![CDATA[
.bg{fill:#eef3f7}.shell{fill:#f8fbfd;stroke:#d5e0eb}
.ink{fill:#142033}.muted{fill:#6b7a8d}.faint{fill:#94a3b4}
.surface{fill:#ffffff;stroke:rgba(26,45,74,0.14)}
.soft{fill:#f1f5f9;stroke:rgba(26,45,74,0.14)}
.small{font:11px 'Segoe UI','Microsoft YaHei',sans-serif}
.body{font:13px 'Segoe UI','Microsoft YaHei',sans-serif}
.title{font:700 15px 'Segoe UI','Microsoft YaHei',sans-serif}
.h1{font:700 18px 'Segoe UI','Microsoft YaHei',sans-serif}
.h2{font:700 16px 'Segoe UI','Microsoft YaHei',sans-serif}
.label{font:700 12px 'Segoe UI','Microsoft YaHei',sans-serif}
.cap{font:700 10px 'Segoe UI','Microsoft YaHei',sans-serif}
.metaL{font:600 11px 'Segoe UI','Microsoft YaHei',sans-serif}
.metaV{font:700 12px 'Segoe UI','Microsoft YaHei',sans-serif}
]]></style></defs>

  <rect class="bg" width="1280" height="980"/>
  <rect x="40" y="20" width="1200" height="940" rx="16" class="shell"/>

  <rect x="40" y="20" width="1200" height="56" rx="14" class="surface"/>
  <text x="60" y="48" class="h1 ink">高级设置</text>
  <text x="200" y="48" class="small muted">小白无需打开 · 开发者 / 进阶用户可选</text>

  <g transform="translate(64 118)">
      <rect x="0" y="0" width="78" height="30" rx="8" fill="#f1f5f9" stroke="rgba(26,45,74,0.14)" stroke-width="1"/>
      <text x="39" y="20" text-anchor="middle" class="cap" fill="#6b7a8d">Codex</text>
      <rect x="86" y="0" width="78" height="30" rx="8" fill="#f1f5f9" stroke="rgba(26,45,74,0.14)" stroke-width="1"/>
      <text x="125" y="20" text-anchor="middle" class="cap" fill="#6b7a8d">Claude</text>
      <rect x="172" y="0" width="78" height="30" rx="8" fill="#f1f5f9" stroke="rgba(26,45,74,0.14)" stroke-width="1"/>
      <text x="211" y="20" text-anchor="middle" class="cap" fill="#6b7a8d">Cursor</text>
      <rect x="258" y="0" width="96" height="30" rx="8" fill="#fff" stroke="#3eb8dc" stroke-width="2"/>
      <text x="306" y="20" text-anchor="middle" class="cap" fill="#2a9cc4">我的应用</text><rect x="266" y="28" width="80" height="3" rx="1.5" fill="#3eb8dc"/></g>

  <g transform="translate(64 100)">
    <rect width="1152" height="36" rx="8" fill="#f1f5f9" stroke="rgba(26,45,74,0.14)"/>
    <text x="16" y="23" class="cap ink">▾ 高级设置（已展开）</text>
  </g>

  <g transform="translate(64 152)">
    <text x="0" y="0" class="label ink">逐键配色（原 v8 grid 下沉）</text>
    
      <g transform="translate(0 12)">
        <rect width="120" height="72" rx="8" class="soft"/>
        <text x="12" y="22" class="cap ink">AG01</text>
        <circle cx="24" cy="48" r="10" fill="#7c3aed"/>
        <rect x="44" y="40" width="36" height="16" rx="8" fill="#2e7d4f"/><circle cx="68" cy="48" r="6" fill="#fff"/>
      </g>
      <g transform="translate(140 12)">
        <rect width="120" height="72" rx="8" class="soft"/>
        <text x="12" y="22" class="cap ink">AG03</text>
        <circle cx="24" cy="48" r="10" fill="#3b82f6"/>
        <rect x="44" y="40" width="36" height="16" rx="8" fill="#2e7d4f"/><circle cx="68" cy="48" r="6" fill="#fff"/>
      </g>
      <g transform="translate(280 12)">
        <rect width="120" height="72" rx="8" class="soft"/>
        <text x="12" y="22" class="cap ink">AG04</text>
        <circle cx="24" cy="48" r="10" fill="#22c55e"/>
        <rect x="44" y="40" width="36" height="16" rx="8" fill="#2e7d4f"/><circle cx="68" cy="48" r="6" fill="#fff"/>
      </g>
      <g transform="translate(420 12)">
        <rect width="120" height="72" rx="8" class="soft"/>
        <text x="12" y="22" class="cap ink">AG05</text>
        <circle cx="24" cy="48" r="10" fill="#f59e0b"/>
        <rect x="44" y="40" width="36" height="16" rx="8" fill="#2e7d4f"/><circle cx="68" cy="48" r="6" fill="#fff"/>
      </g>
  </g>

  <g transform="translate(64 260)">
    <text x="0" y="0" class="label ink">API 集成</text>
    <rect x="0" y="12" width="520" height="80" rx="10" fill="#1e293b"/>
    <text x="16" y="36" class="small" fill="#94a3b8">POST http://127.0.0.1:8796/api/codex-app/state</text>
    <text x="16" y="56" class="small" fill="#64748b">{ "state": "running", "lightRules": { ... } }</text>
  </g>

  <g transform="translate(64 368)">
    <text x="0" y="0" class="label ink">Claude / Codex / Cursor 能力对照（原图 B 下沉）</text>
    <rect x="0" y="12" width="1152" height="36" rx="8" fill="#f1f5f9" stroke="rgba(26,45,74,0.14)"/>
    <text x="16" y="34" class="small ink">微观灯</text>
    <text x="200" y="34" class="small" fill="#d97706">多 AG 池</text>
    <text x="400" y="34" class="small" fill="#2e7d4f">单宿主 AG00</text>
    <text x="620" y="34" class="small" fill="#7c3aed">无 AG 宿主</text>
    <rect x="0" y="56" width="1152" height="36" rx="8" class="surface"/>
    <text x="16" y="78" class="small ink">宏观灯</text>
    <text x="200" y="78" class="small muted">顶栏 chip</text>
    <text x="400" y="78" class="small muted">顶栏 + Soft RGB</text>
    <text x="620" y="78" class="small muted">仅 Attention</text>
  </g>

  <g transform="translate(64 480)">
    <text x="0" y="0" class="label ink">高级诊断（现有 lab 并入）</text>
    <rect x="0" y="12" width="1152" height="120" rx="12" class="soft"/>
    <text x="20" y="44" class="small muted">pad_status jsonl · 测试注入 · Claude Activity 面板</text>
    <rect x="20" y="60" width="100" height="28" rx="8" fill="#f1f5f9" stroke="rgba(26,45,74,0.14)"/>
    <text x="70" y="79" text-anchor="middle" class="cap muted">回放</text>
    <rect x="132" y="60" width="100" height="28" rx="8" fill="#f1f5f9" stroke="rgba(26,45,74,0.14)"/>
    <text x="182" y="79" text-anchor="middle" class="cap muted">注入测试</text>
  </g>

  <g transform="translate(64 640)">
    <g transform="translate(0 0)"><rect width="560" height="240" rx="18" fill="#ecf8f3" stroke="rgba(52,211,153,0.35)"/><text x="20" y="26" class="cap" fill="#34d399">HERO · 预览即说明</text><rect x="144" y="40" width="272" height="164" rx="20" fill="#d9eef6" stroke="#3eb8dc" stroke-width="2"/><rect x="156" y="52" width="248" height="132" rx="14" fill="#f7fbfd" stroke="#b7dcea"/><rect x="160" y="56" width="72" height="52" rx="10" fill="#7c3aed" stroke="#7c3aed"/><rect x="168" y="62" width="36" height="18" rx="9" fill="rgba(255,255,255,0.92)" stroke="rgba(26,45,74,0.14)"/><text x="186" y="75" text-anchor="middle" class="cap ink">忙</text><rect x="244" y="56" width="72" height="52" rx="10" fill="#22c55e" stroke="#22c55e"/><rect x="328" y="56" width="72" height="52" rx="10" fill="#f59e0b" stroke="#f59e0b"/><rect x="336" y="62" width="36" height="18" rx="9" fill="rgba(255,255,255,0.92)" stroke="rgba(26,45,74,0.14)"/><text x="354" y="75" text-anchor="middle" class="cap ink">等你</text><rect x="160" y="120" width="72" height="52" rx="10" fill="#fff" stroke="#d5e1ec"/><rect x="244" y="120" width="72" height="52" rx="10" fill="#3b82f6" stroke="#3b82f6"/><rect x="252" y="126" width="36" height="18" rx="9" fill="rgba(255,255,255,0.92)" stroke="rgba(26,45,74,0.14)"/><text x="270" y="139" text-anchor="middle" class="cap ink">忙</text><rect x="328" y="120" width="72" height="52" rx="10" fill="#fff" stroke="#d5e1ec"/><rect x="156" y="180" width="248" height="24" rx="8" fill="#1e3a48"/><circle cx="176" cy="192" r="5" fill="#d97706"/><circle cx="192" cy="192" r="5" fill="#3b82f6"/><circle cx="208" cy="192" r="5" fill="#f59e0b"/><text x="380" y="196" text-anchor="end" class="cap" fill="#9ec9d8">顶栏圆点</text><circle cx="20" cy="212" r="5" fill="#94a3b4"/><text x="30" y="216" class="small muted">空闲</text><circle cx="76" cy="212" r="5" fill="#3b82f6"/><text x="86" y="216" class="small muted">忙</text><circle cx="132" cy="212" r="5" fill="#f59e0b"/><text x="142" y="216" class="small muted">等你</text><circle cx="188" cy="212" r="5" fill="#22c55e"/><text x="198" y="216" class="small muted">完成</text><circle cx="244" cy="212" r="5" fill="#dc2626"/><text x="254" y="216" class="small muted">失败</text></g>
    <g transform="translate(600 0)">
      <rect width="552" height="240" rx="14" fill="#fff7ed" stroke="rgba(245,158,11,0.28)"/>
      <text x="20" y="32" class="title ink">首屏 vs 高级</text>
      <text x="20" y="56" class="small muted">首屏：Hero + 1开关 + 最多 1 CTA / 3 模板</text>
      <text x="20" y="76" class="small muted">高级：逐键 grid + API + 对照表 + 诊断</text>
      <text x="20" y="110" class="small" fill="#2e7d4f">✓ 小白 3 秒懂忙闲</text>
      <text x="20" y="130" class="small" fill="#2e7d4f">✓ 最多点两下</text>
      <text x="20" y="150" class="small" fill="#2e7d4f">✓ 不暴露 catalog / JSON</text>
    </g>
  </g>

  <text x="64" y="940" class="title ink">图 C · 高级设置展开 · v8 能力全部下沉</text>

</svg>